<svg xmlns="http://www.w3.org/2000/svg" viewBox="0 0 841.9 595.3"><g fill="#61DAFB"><circle cx="420.9" cy="296.5" r="45.7"/><path d="M520.5 78.1c-26.1-15-59.9-1.3-91.8 33.9-31.8-35.2-65.6-48.9-91.8-33.9-30.6 17.6-39.6 66.1-24.4 123.1-54.1 6.6-90.6 24.6-90.6 45.3s36.5 38.7 90.6 45.3c-15.3 57-6.2 105.5 24.4 123.1 26.1 15 59.9 1.3 91.8-33.9 31.8 35.2 65.6 48.9 91.8 33.9 30.6-17.6 39.6-66.1 24.4-123.1 54.1-6.6 90.6-24.6 90.6-45.3s-36.5-38.7-90.6-45.3c15.2-57 6.2-105.5-24.4-123.1z" fill="none" stroke="#61DAFB" stroke-width="24"/></g></svg>
